%TF.GenerationSoftware,KiCad,Pcbnew,9.0.2*%
%TF.CreationDate,2025-06-19T21:36:48+05:30*%
%TF.ProjectId,line_follower,6c696e65-5f66-46f6-9c6c-6f7765722e6b,rev?*%
%TF.SameCoordinates,Original*%
%TF.FileFunction,Soldermask,Bot*%
%TF.FilePolarity,Negative*%
%FSLAX46Y46*%
G04 Gerber Fmt 4.6, Leading zero omitted, Abs format (unit mm)*
G04 Created by KiCad (PCBNEW 9.0.2) date 2025-06-19 21:36:48*
%MOMM*%
%LPD*%
G01*
G04 APERTURE LIST*
G04 Aperture macros list*
%AMRoundRect*
0 Rectangle with rounded corners*
0 $1 Rounding radius*
0 $2 $3 $4 $5 $6 $7 $8 $9 X,Y pos of 4 corners*
0 Add a 4 corners polygon primitive as box body*
4,1,4,$2,$3,$4,$5,$6,$7,$8,$9,$2,$3,0*
0 Add four circle primitives for the rounded corners*
1,1,$1+$1,$2,$3*
1,1,$1+$1,$4,$5*
1,1,$1+$1,$6,$7*
1,1,$1+$1,$8,$9*
0 Add four rect primitives between the rounded corners*
20,1,$1+$1,$2,$3,$4,$5,0*
20,1,$1+$1,$4,$5,$6,$7,0*
20,1,$1+$1,$6,$7,$8,$9,0*
20,1,$1+$1,$8,$9,$2,$3,0*%
G04 Aperture macros list end*
%ADD10C,2.100000*%
%ADD11R,1.700000X1.700000*%
%ADD12C,1.700000*%
%ADD13R,1.800000X1.800000*%
%ADD14C,1.800000*%
%ADD15RoundRect,1.500000X1.500000X1.500000X-1.500000X1.500000X-1.500000X-1.500000X1.500000X-1.500000X0*%
%ADD16C,6.000000*%
%ADD17C,2.000000*%
%ADD18RoundRect,0.237500X0.350000X0.237500X-0.350000X0.237500X-0.350000X-0.237500X0.350000X-0.237500X0*%
%ADD19RoundRect,0.237500X0.079550X0.415425X-0.415425X-0.079550X-0.079550X-0.415425X0.415425X0.079550X0*%
%ADD20RoundRect,0.102000X-0.750000X0.750000X-0.750000X-0.750000X0.750000X-0.750000X0.750000X0.750000X0*%
%ADD21C,1.704000*%
%ADD22RoundRect,0.237500X0.415425X-0.079550X-0.079550X0.415425X-0.415425X0.079550X0.079550X-0.415425X0*%
%ADD23RoundRect,0.237500X-0.237500X0.350000X-0.237500X-0.350000X0.237500X-0.350000X0.237500X0.350000X0*%
G04 APERTURE END LIST*
D10*
%TO.C,8*%
X173200000Y-198400000D03*
%TD*%
D11*
%TO.C,J10*%
X116078000Y-206248000D03*
D12*
X118618000Y-206248000D03*
X121158000Y-206248000D03*
X123698000Y-206248000D03*
X126238000Y-206248000D03*
X128778000Y-206248000D03*
X131318000Y-206248000D03*
X133858000Y-206248000D03*
X136398000Y-206248000D03*
X138938000Y-206248000D03*
X141478000Y-206248000D03*
X144018000Y-206248000D03*
X146558000Y-206248000D03*
X149098000Y-206248000D03*
X151638000Y-206248000D03*
X154178000Y-206248000D03*
X156718000Y-206248000D03*
X159258000Y-206248000D03*
X161798000Y-206248000D03*
X164338000Y-206248000D03*
%TD*%
D13*
%TO.C,SW4*%
X111318700Y-221207100D03*
D14*
X113818700Y-221207100D03*
X116318700Y-221207100D03*
X111318700Y-227207100D03*
X113818700Y-227207100D03*
X116318700Y-227207100D03*
%TD*%
D11*
%TO.C,J6*%
X97820000Y-194900000D03*
D12*
X100360000Y-194900000D03*
%TD*%
D11*
%TO.C,J13*%
X129286000Y-237490000D03*
D12*
X131826000Y-237490000D03*
X134366000Y-237490000D03*
X136906000Y-237490000D03*
%TD*%
D10*
%TO.C,3*%
X203000000Y-181000000D03*
%TD*%
D11*
%TO.C,J12*%
X87660000Y-194900000D03*
D12*
X90200000Y-194900000D03*
%TD*%
D10*
%TO.C,2*%
X70866000Y-208000000D03*
%TD*%
D11*
%TO.C,J9*%
X87660000Y-177145000D03*
D12*
X90200000Y-177145000D03*
%TD*%
D13*
%TO.C,SW1*%
X96476700Y-204316100D03*
D14*
X98976700Y-204316100D03*
X101476700Y-204316100D03*
X96476700Y-210316100D03*
X98976700Y-210316100D03*
X101476700Y-210316100D03*
%TD*%
D11*
%TO.C,J11*%
X116078000Y-175768000D03*
D12*
X118618000Y-175768000D03*
X121158000Y-175768000D03*
X123698000Y-175768000D03*
X126238000Y-175768000D03*
X128778000Y-175768000D03*
X131318000Y-175768000D03*
X133858000Y-175768000D03*
X136398000Y-175768000D03*
X138938000Y-175768000D03*
X141478000Y-175768000D03*
X144018000Y-175768000D03*
X146558000Y-175768000D03*
X149098000Y-175768000D03*
X151638000Y-175768000D03*
X154178000Y-175768000D03*
X156718000Y-175768000D03*
X159258000Y-175768000D03*
X161798000Y-175768000D03*
X164338000Y-175768000D03*
%TD*%
D10*
%TO.C,5*%
X106772000Y-167412000D03*
%TD*%
D15*
%TO.C,J5*%
X99358000Y-225044000D03*
D16*
X92158000Y-225044000D03*
%TD*%
D11*
%TO.C,J7*%
X97820000Y-177145000D03*
D12*
X100360000Y-177145000D03*
%TD*%
D11*
%TO.C,J3*%
X126746000Y-228854000D03*
D12*
X129286000Y-228854000D03*
X131826000Y-228854000D03*
X134366000Y-228854000D03*
X136906000Y-228854000D03*
X139446000Y-228854000D03*
%TD*%
D17*
%TO.C,SW5*%
X168350000Y-230088000D03*
X161850000Y-230088000D03*
X168350000Y-225588000D03*
X161850000Y-225588000D03*
%TD*%
D11*
%TO.C,J4*%
X126746000Y-213589000D03*
D12*
X129286000Y-213589000D03*
X131826000Y-213589000D03*
X134366000Y-213589000D03*
X136906000Y-213589000D03*
X139446000Y-213589000D03*
%TD*%
D10*
%TO.C,7*%
X106772000Y-198400000D03*
%TD*%
%TO.C,4*%
X203000000Y-208000000D03*
%TD*%
D11*
%TO.C,J2*%
X116078000Y-198628000D03*
D12*
X118618000Y-198628000D03*
X121158000Y-198628000D03*
X123698000Y-198628000D03*
X126238000Y-198628000D03*
X128778000Y-198628000D03*
X131318000Y-198628000D03*
X133858000Y-198628000D03*
X136398000Y-198628000D03*
X138938000Y-198628000D03*
X141478000Y-198628000D03*
X144018000Y-198628000D03*
X146558000Y-198628000D03*
X149098000Y-198628000D03*
X151638000Y-198628000D03*
X154178000Y-198628000D03*
X156718000Y-198628000D03*
X159258000Y-198628000D03*
X161798000Y-198628000D03*
X164338000Y-198628000D03*
%TD*%
D13*
%TO.C,SW3*%
X149293000Y-219352900D03*
D14*
X151793000Y-219352900D03*
X154293000Y-219352900D03*
X149293000Y-225352900D03*
X151793000Y-225352900D03*
X154293000Y-225352900D03*
%TD*%
D11*
%TO.C,J1*%
X116078000Y-183388000D03*
D12*
X118618000Y-183388000D03*
X121158000Y-183388000D03*
X123698000Y-183388000D03*
X126238000Y-183388000D03*
X128778000Y-183388000D03*
X131318000Y-183388000D03*
X133858000Y-183388000D03*
X136398000Y-183388000D03*
X138938000Y-183388000D03*
X141478000Y-183388000D03*
X144018000Y-183388000D03*
X146558000Y-183388000D03*
X149098000Y-183388000D03*
X151638000Y-183388000D03*
X154178000Y-183388000D03*
X156718000Y-183388000D03*
X159258000Y-183388000D03*
X161798000Y-183388000D03*
X164338000Y-183388000D03*
%TD*%
D10*
%TO.C,1*%
X70866000Y-181000000D03*
%TD*%
D11*
%TO.C,J8*%
X181300000Y-180680000D03*
D12*
X181300000Y-183220000D03*
X181300000Y-185760000D03*
X181300000Y-188300000D03*
X181300000Y-190840000D03*
X181300000Y-193380000D03*
%TD*%
D10*
%TO.C,6*%
X173200000Y-167412000D03*
%TD*%
D18*
%TO.C,R10*%
X188540700Y-86512400D03*
X186515700Y-86512400D03*
%TD*%
D19*
%TO.C,R9*%
X178388946Y-81173654D03*
X176957054Y-82605546D03*
%TD*%
D20*
%TO.C,A6*%
X125476000Y-73400000D03*
D21*
X122976000Y-73400000D03*
X122976000Y-76200000D03*
X125476000Y-76200000D03*
%TD*%
D20*
%TO.C,A7*%
X112756000Y-75432000D03*
D21*
X110256000Y-75432000D03*
X110256000Y-78232000D03*
X112756000Y-78232000D03*
%TD*%
D19*
%TO.C,R6*%
X141635146Y-71953454D03*
X140203254Y-73385346D03*
%TD*%
D20*
%TO.C,A8*%
X100838000Y-78858000D03*
D21*
X98338000Y-78858000D03*
X98338000Y-81658000D03*
X100838000Y-81658000D03*
%TD*%
D20*
%TO.C,A4*%
X148804000Y-73400000D03*
D21*
X146304000Y-73400000D03*
X146304000Y-76200000D03*
X148804000Y-76200000D03*
%TD*%
D19*
%TO.C,R3*%
X106024346Y-77541454D03*
X104592454Y-78973346D03*
%TD*%
D20*
%TO.C,A2*%
X173462000Y-78991000D03*
D21*
X170962000Y-78991000D03*
X170962000Y-81791000D03*
X173462000Y-81791000D03*
%TD*%
D20*
%TO.C,A1*%
X183114000Y-86103000D03*
D21*
X180614000Y-86103000D03*
X180614000Y-88903000D03*
X183114000Y-88903000D03*
%TD*%
D20*
%TO.C,A9*%
X91186000Y-85970000D03*
D21*
X88686000Y-85970000D03*
X88686000Y-88770000D03*
X91186000Y-88770000D03*
%TD*%
D22*
%TO.C,R7*%
X154182746Y-74604546D03*
X152750854Y-73172654D03*
%TD*%
D23*
%TO.C,R2*%
X94792800Y-84026700D03*
X94792800Y-86051700D03*
%TD*%
D18*
%TO.C,R5*%
X130908100Y-78943200D03*
X128883100Y-78943200D03*
%TD*%
D19*
%TO.C,R8*%
X166984346Y-77592254D03*
X165552454Y-79024146D03*
%TD*%
%TO.C,R4*%
X117911546Y-74366454D03*
X116479654Y-75798346D03*
%TD*%
D20*
%TO.C,A3*%
X161544000Y-75432000D03*
D21*
X159044000Y-75432000D03*
X159044000Y-78232000D03*
X161544000Y-78232000D03*
%TD*%
D20*
%TO.C,A5*%
X137160000Y-72768000D03*
D21*
X134660000Y-72768000D03*
X134660000Y-75568000D03*
X137160000Y-75568000D03*
%TD*%
M02*
