M48
; DRILL file {KiCad 9.0.2} date 2025-06-19T21:36:51+0530
; FORMAT={-:-/ absolute / metric / decimal}
; #@! TF.CreationDate,2025-06-19T21:36:51+05:30
; #@! TF.GenerationSoftware,Kicad,Pcbnew,9.0.2
; #@! TF.FileFunction,Plated,1,2,PTH
FMAT,2
METRIC
; #@! TA.AperFunction,Plated,PTH,ViaDrill
T1C0.300
; #@! TA.AperFunction,Plated,PTH,ViaDrill
T2C0.350
; #@! TA.AperFunction,Plated,PTH,ComponentDrill
T3C0.900
; #@! TA.AperFunction,Plated,PTH,ComponentDrill
T4C1.000
; #@! TA.AperFunction,Plated,PTH,ComponentDrill
T5C1.100
; #@! TA.AperFunction,Plated,PTH,ComponentDrill
T6C4.500
%
G90
G05
T1
X79.629Y-203.987
X80.289Y-216.764
X80.391Y-171.145
X80.543Y-192.659
X81.9Y-198.4
X82.296Y-85.42
X82.321Y-181.813
X82.5Y-210.5
X82.652Y-92.431
X83.871Y-175.006
X84.1Y-188.9
X84.734Y-84.43
X85.166Y-222.25
X85.319Y-229.413
X85.649Y-82.017
X85.979Y-94.767
X86.401Y-200.248
X87.097Y-91.389
X87.799Y-186.803
X89.103Y-83.16
X89.992Y-168.25
X90.7Y-234.1
X91.084Y-76.835
X91.11Y-173.888
X94.2Y-180.9
X96.9Y-200.6
X98.857Y-74.625
X98.958Y-71.755
X99.229Y-183.704
X100.025Y-163.83
X100.829Y-185.66
X102.489Y-85.623
X103.5Y-234.4
X105.3Y-207.061
X106.934Y-158.217
X107.086Y-81.229
X107.391Y-69.113
X107.798Y-211.557
X109.804Y-71.374
X111.0Y-196.0
X112.522Y-181.127
X112.776Y-186.182
X113.8Y-234.3
X114.148Y-215.341
X114.376Y-82.55
X114.96Y-150.851
X116.18Y-160.985
X117.119Y-157.124
X117.475Y-68.123
X119.05Y-153.645
X119.177Y-78.029
X119.329Y-210.261
X119.913Y-157.912
X120.2Y-171.5
X120.5Y-220.0
X120.599Y-145.44
X121.437Y-69.469
X121.7Y-168.4
X122.4Y-234.3
X122.58Y-156.185
X123.0Y-171.5
X123.393Y-152.654
X123.7Y-217.4
X123.952Y-146.939
X124.472Y-220.472
X124.9Y-168.5
X125.4Y-149.403
X125.476Y-157.353
X126.2Y-171.4
X126.924Y-152.349
X126.924Y-191.999
X126.975Y-239.979
X127.102Y-81.026
X127.203Y-139.7
X127.33Y-194.742
X127.61Y-66.015
X128.118Y-75.082
X128.295Y-187.554
X128.4Y-217.7
X128.575Y-89.383
X128.626Y-99.822
X128.689Y-111.735
X128.727Y-131.877
X128.753Y-123.266
X129.21Y-154.915
X129.972Y-172.085
X129.997Y-169.113
X130.048Y-148.463
X130.048Y-151.054
X130.048Y-152.806
X130.099Y-143.332
X130.099Y-146.075
X130.2Y-189.763
X130.48Y-194.031
X130.988Y-166.7
X131.089Y-156.87
X131.14Y-155.727
X132.182Y-224.587
X132.41Y-80.95
X132.563Y-240.233
X132.74Y-172.136
X132.817Y-78.156
X132.842Y-68.91
X133.096Y-169.393
X133.248Y-187.452
X136.677Y-156.312
X137.541Y-151.486
X137.719Y-171.806
X137.744Y-65.786
X137.77Y-224.434
X138.049Y-217.653
X138.176Y-169.062
X138.227Y-80.924
X138.379Y-148.666
X138.481Y-188.595
X138.532Y-240.106
X138.76Y-166.522
X139.243Y-153.187
X140.106Y-75.54
X140.181Y-78.589
X140.233Y-150.495
X140.538Y-172.212
X140.691Y-147.726
X140.716Y-144.501
X140.97Y-154.915
X141.173Y-166.751
X141.3Y-169.291
X142.113Y-152.248
X142.24Y-156.54
X142.291Y-149.479
X142.494Y-171.196
X142.646Y-189.332
X142.748Y-146.66
X142.875Y-88.722
X142.9Y-111.074
X142.9Y-233.756
X142.926Y-122.479
X142.926Y-131.216
X143.002Y-99.136
X143.18Y-214.249
X143.434Y-137.744
X144.018Y-216.154
X144.069Y-154.457
X144.272Y-148.361
X144.348Y-151.486
X144.526Y-226.746
X144.882Y-69.494
X145.415Y-211.201
X145.948Y-190.144
X146.456Y-150.597
X146.558Y-153.797
X147.523Y-143.231
X147.549Y-65.964
X147.701Y-155.499
X147.828Y-168.046
X147.853Y-157.201
X148.565Y-152.4
X148.717Y-209.22
X149.301Y-191.211
X149.657Y-79.68
X150.419Y-154.229
X150.876Y-172.466
X151.841Y-74.93
X152.095Y-171.45
X152.679Y-209.144
X153.391Y-157.505
X154.203Y-78.334
X154.508Y-233.604
X155.727Y-209.144
X156.159Y-150.317
X156.489Y-67.564
X157.201Y-71.349
X158.242Y-195.58
X158.75Y-225.298
X159.055Y-158.445
X160.985Y-81.737
X161.519Y-209.194
X163.779Y-85.42
X163.779Y-158.064
X164.084Y-213.868
X165.735Y-220.04
X165.837Y-70.002
X165.862Y-195.072
X166.116Y-74.778
X166.7Y-233.655
X167.132Y-195.072
X168.402Y-195.072
X169.189Y-74.041
X169.342Y-84.582
X171.958Y-87.478
X173.761Y-72.669
X174.244Y-179.832
X175.285Y-173.025
X176.124Y-80.289
X177.394Y-85.852
X178.029Y-92.1
X178.528Y-207.67
X178.553Y-212.344
X178.553Y-223.266
X178.562Y-214.884
X178.714Y-233.578
X178.9Y-166.7
X179.349Y-227.203
X180.086Y-77.216
X180.924Y-82.652
X181.0Y-176.124
X182.88Y-219.71
X183.134Y-213.614
X183.794Y-94.386
X183.896Y-208.534
X184.353Y-168.808
X184.785Y-195.301
X184.836Y-181.686
X185.1Y-189.6
X187.096Y-83.718
X187.198Y-200.965
X188.011Y-232.74
X188.138Y-88.29
X188.366Y-175.92
X188.366Y-188.011
X188.595Y-225.222
X189.509Y-90.094
X190.221Y-212.7
X191.237Y-195.732
X192.278Y-181.61
X194.513Y-209.779
X195.199Y-201.574
X195.377Y-188.366
X195.58Y-217.373
X196.24Y-171.679
X203.403Y-216.611
X208.204Y-214.909
X210.007Y-174.828
X210.82Y-208.636
X210.845Y-185.598
X210.845Y-195.351
T2
X104.394Y-178.308
X105.41Y-178.308
X105.8Y-173.9
X106.426Y-178.308
X106.9Y-173.8
X107.696Y-178.308
X108.0Y-173.9
X108.712Y-178.308
X109.0Y-173.9
X110.3Y-173.9
X122.6Y-227.6
X127.508Y-161.798
X127.762Y-162.814
X130.556Y-162.052
X136.144Y-161.544
T3
X96.477Y-204.316
X96.477Y-210.316
X98.977Y-204.316
X98.977Y-210.316
X101.477Y-204.316
X101.477Y-210.316
X111.319Y-221.207
X111.319Y-227.207
X113.819Y-221.207
X113.819Y-227.207
X116.319Y-221.207
X116.319Y-227.207
X149.293Y-219.353
X149.293Y-225.353
X151.793Y-219.353
X151.793Y-225.353
X154.293Y-219.353
X154.293Y-225.353
T4
X87.66Y-177.145
X87.66Y-194.9
X88.686Y-85.97
X88.686Y-88.77
X90.2Y-177.145
X90.2Y-194.9
X91.186Y-85.97
X91.186Y-88.77
X97.82Y-177.145
X97.82Y-194.9
X98.338Y-78.858
X98.338Y-81.658
X100.36Y-177.145
X100.36Y-194.9
X100.838Y-78.858
X100.838Y-81.658
X110.256Y-75.432
X110.256Y-78.232
X112.756Y-75.432
X112.756Y-78.232
X116.078Y-175.768
X116.078Y-183.388
X116.078Y-198.628
X116.078Y-206.248
X118.618Y-175.768
X118.618Y-183.388
X118.618Y-198.628
X118.618Y-206.248
X121.158Y-175.768
X121.158Y-183.388
X121.158Y-198.628
X121.158Y-206.248
X122.976Y-73.4
X122.976Y-76.2
X123.698Y-175.768
X123.698Y-183.388
X123.698Y-198.628
X123.698Y-206.248
X125.476Y-73.4
X125.476Y-76.2
X126.238Y-175.768
X126.238Y-183.388
X126.238Y-198.628
X126.238Y-206.248
X126.746Y-213.589
X126.746Y-228.854
X128.778Y-175.768
X128.778Y-183.388
X128.778Y-198.628
X128.778Y-206.248
X129.286Y-213.589
X129.286Y-228.854
X129.286Y-237.49
X131.318Y-175.768
X131.318Y-183.388
X131.318Y-198.628
X131.318Y-206.248
X131.826Y-213.589
X131.826Y-228.854
X131.826Y-237.49
X133.858Y-175.768
X133.858Y-183.388
X133.858Y-198.628
X133.858Y-206.248
X134.366Y-213.589
X134.366Y-228.854
X134.366Y-237.49
X134.66Y-72.768
X134.66Y-75.568
X136.398Y-175.768
X136.398Y-183.388
X136.398Y-198.628
X136.398Y-206.248
X136.906Y-213.589
X136.906Y-228.854
X136.906Y-237.49
X137.16Y-72.768
X137.16Y-75.568
X138.938Y-175.768
X138.938Y-183.388
X138.938Y-198.628
X138.938Y-206.248
X139.446Y-213.589
X139.446Y-228.854
X141.478Y-175.768
X141.478Y-183.388
X141.478Y-198.628
X141.478Y-206.248
X144.018Y-175.768
X144.018Y-183.388
X144.018Y-198.628
X144.018Y-206.248
X146.304Y-73.4
X146.304Y-76.2
X146.558Y-175.768
X146.558Y-183.388
X146.558Y-198.628
X146.558Y-206.248
X148.804Y-73.4
X148.804Y-76.2
X149.098Y-175.768
X149.098Y-183.388
X149.098Y-198.628
X149.098Y-206.248
X151.638Y-175.768
X151.638Y-183.388
X151.638Y-198.628
X151.638Y-206.248
X154.178Y-175.768
X154.178Y-183.388
X154.178Y-198.628
X154.178Y-206.248
X156.718Y-175.768
X156.718Y-183.388
X156.718Y-198.628
X156.718Y-206.248
X159.044Y-75.432
X159.044Y-78.232
X159.258Y-175.768
X159.258Y-183.388
X159.258Y-198.628
X159.258Y-206.248
X161.544Y-75.432
X161.544Y-78.232
X161.798Y-175.768
X161.798Y-183.388
X161.798Y-198.628
X161.798Y-206.248
X164.338Y-175.768
X164.338Y-183.388
X164.338Y-198.628
X164.338Y-206.248
X170.962Y-78.991
X170.962Y-81.791
X173.462Y-78.991
X173.462Y-81.791
X180.614Y-86.103
X180.614Y-88.903
X181.3Y-180.68
X181.3Y-183.22
X181.3Y-185.76
X181.3Y-188.3
X181.3Y-190.84
X181.3Y-193.38
X183.114Y-86.103
X183.114Y-88.903
T5
X161.85Y-225.588
X161.85Y-230.088
X168.35Y-225.588
X168.35Y-230.088
T6
X92.158Y-225.044
X99.358Y-225.044
M30
