%TF.GenerationSoftware,KiCad,Pcbnew,9.0.2*%
%TF.CreationDate,2025-06-19T21:36:48+05:30*%
%TF.ProjectId,line_follower,6c696e65-5f66-46f6-9c6c-6f7765722e6b,rev?*%
%TF.SameCoordinates,Original*%
%TF.FileFunction,Profile,NP*%
%FSLAX46Y46*%
G04 Gerber Fmt 4.6, Leading zero omitted, Abs format (unit mm)*
G04 Created by KiCad (PCBNEW 9.0.2) date 2025-06-19 21:36:48*
%MOMM*%
%LPD*%
G01*
G04 APERTURE LIST*
%TA.AperFunction,Profile*%
%ADD10C,0.050000*%
%TD*%
G04 APERTURE END LIST*
D10*
X190144400Y-168021000D02*
X209956400Y-172085000D01*
X107365800Y-86893400D02*
X116408200Y-85598000D01*
X209956400Y-172085000D02*
X210972400Y-172847000D01*
X190398400Y-91821000D02*
X188620400Y-95377000D01*
X143840200Y-136423400D02*
X143814800Y-133654800D01*
X81432400Y-84455000D02*
X81178400Y-91821000D01*
X192176400Y-223647000D02*
X192176400Y-224663000D01*
X124104400Y-64897000D02*
X110896400Y-67183000D01*
X109829600Y-153441400D02*
X114223800Y-149174200D01*
X125120400Y-238125000D02*
X125120400Y-240157000D01*
X135788400Y-64897000D02*
X124104400Y-64897000D01*
X121869200Y-85242400D02*
X127177800Y-85598000D01*
X211988400Y-174117000D02*
X212496400Y-175387000D01*
X141376400Y-236347000D02*
X140868400Y-236855000D01*
X61874400Y-175387000D02*
X61620400Y-176911000D01*
X140360400Y-240665000D02*
X140106400Y-240919000D01*
X99212400Y-70485000D02*
X89052400Y-77089000D01*
X139598400Y-241173000D02*
X133756400Y-241173000D01*
X61620400Y-183515000D02*
X61620400Y-213995000D01*
X192430400Y-222377000D02*
X192176400Y-223647000D01*
X78130400Y-219329000D02*
X80162400Y-220091000D01*
X114223800Y-149174200D02*
X118237000Y-145288000D01*
X148412200Y-142036800D02*
X145313400Y-139649200D01*
X140868400Y-236855000D02*
X140614400Y-237363000D01*
X160680400Y-67183000D02*
X172364400Y-70485000D01*
X182524400Y-77089000D02*
X190144400Y-84455000D01*
X127558800Y-136296400D02*
X127711200Y-133807200D01*
X209956400Y-217043000D02*
X207924400Y-217805000D01*
X91313000Y-95554800D02*
X93167200Y-94259400D01*
X125628400Y-240919000D02*
X126136400Y-241173000D01*
X123088400Y-236093000D02*
X124358400Y-236347000D01*
X118237000Y-145288000D02*
X121386600Y-143306800D01*
X121310400Y-236093000D02*
X123088400Y-236093000D01*
X82956400Y-95377000D02*
X85496400Y-95885000D01*
X181000400Y-165481000D02*
X173202600Y-162915600D01*
X85242400Y-235839000D02*
X87020400Y-236093000D01*
X64414400Y-217043000D02*
X66446400Y-217805000D01*
X84226400Y-168021000D02*
X64414400Y-172085000D01*
X140614400Y-240157000D02*
X140360400Y-240665000D01*
X126136400Y-241173000D02*
X133756400Y-241173000D01*
X140614400Y-238125000D02*
X140614400Y-240157000D01*
X142646400Y-236093000D02*
X141376400Y-236347000D01*
X143814800Y-133654800D02*
X143865600Y-86969600D01*
X149707600Y-85242400D02*
X144830800Y-85623400D01*
X88798400Y-166751000D02*
X84226400Y-168021000D01*
X190652400Y-234823000D02*
X189128400Y-235839000D01*
X87020400Y-236093000D02*
X90068400Y-236093000D01*
X81178400Y-221107000D02*
X81940400Y-222377000D01*
X83718400Y-234823000D02*
X85242400Y-235839000D01*
X180263800Y-95554800D02*
X178409600Y-94259400D01*
X89052400Y-77089000D02*
X81432400Y-84455000D01*
X140614400Y-237363000D02*
X140614400Y-238125000D01*
X125120400Y-237363000D02*
X125120400Y-238125000D01*
X191668400Y-233807000D02*
X190652400Y-234823000D01*
X62636400Y-215773000D02*
X64414400Y-217043000D01*
X85496400Y-95885000D02*
X89306400Y-95885000D01*
X61620400Y-213995000D02*
X62636400Y-215773000D01*
X210972400Y-172847000D02*
X211988400Y-174117000D01*
X185572400Y-166751000D02*
X190144400Y-168021000D01*
X211734400Y-215773000D02*
X209956400Y-217043000D01*
X207924400Y-217805000D02*
X204876400Y-218313000D01*
X204876400Y-218313000D02*
X196240400Y-219329000D01*
X164211000Y-86893400D02*
X155168600Y-85598000D01*
X66446400Y-217805000D02*
X69494400Y-218313000D01*
X178409600Y-94259400D02*
X173202600Y-90068400D01*
X159969200Y-152171400D02*
X155575000Y-147904200D01*
X212750400Y-183515000D02*
X212750400Y-213995000D01*
X90068400Y-236093000D02*
X121310400Y-236093000D01*
X182270400Y-95885000D02*
X180263800Y-95554800D01*
X194208400Y-220091000D02*
X193192400Y-221107000D01*
X212750400Y-176911000D02*
X212750400Y-183515000D01*
X184556400Y-236093000D02*
X142646400Y-236093000D01*
X82194400Y-224663000D02*
X82194400Y-232283000D01*
X125679200Y-139598400D02*
X127558800Y-136296400D01*
X64414400Y-172085000D02*
X63398400Y-172847000D01*
X144195800Y-86080600D02*
X144830800Y-85623400D01*
X69494400Y-218313000D02*
X78130400Y-219329000D01*
X173202600Y-162915600D02*
X167309800Y-158877000D01*
X143865600Y-86969600D02*
X144195800Y-86080600D01*
X192176400Y-224663000D02*
X192176400Y-232283000D01*
X192176400Y-232283000D02*
X191668400Y-233807000D01*
X151561800Y-144018000D02*
X148412200Y-142036800D01*
X125120400Y-240157000D02*
X125374400Y-240665000D01*
X82702400Y-233807000D02*
X83718400Y-234823000D01*
X140106400Y-240919000D02*
X139598400Y-241173000D01*
X212750400Y-213995000D02*
X211734400Y-215773000D01*
X155168600Y-85598000D02*
X149707600Y-85242400D01*
X62382400Y-174117000D02*
X61874400Y-175387000D01*
X102489000Y-160147000D02*
X109829600Y-153441400D01*
X212496400Y-175387000D02*
X212750400Y-176911000D01*
X82194400Y-232283000D02*
X82702400Y-233807000D01*
X96596200Y-164185600D02*
X102489000Y-160147000D01*
X155575000Y-147904200D02*
X151561800Y-144018000D01*
X145313400Y-139649200D02*
X143840200Y-136423400D01*
X172364400Y-70485000D02*
X182524400Y-77089000D01*
X124358400Y-236347000D02*
X124866400Y-236855000D01*
X124866400Y-236855000D02*
X125120400Y-237363000D01*
X81178400Y-91821000D02*
X82956400Y-95377000D01*
X61620400Y-176911000D02*
X61620400Y-183515000D01*
X80162400Y-220091000D02*
X81178400Y-221107000D01*
X127514350Y-86106000D02*
X127177800Y-85598000D01*
X121386600Y-143306800D02*
X125679200Y-139598400D01*
X98374200Y-90068400D02*
X107365800Y-86893400D01*
X196240400Y-219329000D02*
X194208400Y-220091000D01*
X147472400Y-64897000D02*
X160680400Y-67183000D01*
X127704850Y-86944200D02*
X127514350Y-86106000D01*
X167309800Y-158877000D02*
X159969200Y-152171400D01*
X186080400Y-95885000D02*
X182270400Y-95885000D01*
X88798400Y-166751000D02*
X96596200Y-164185600D01*
X110896400Y-67183000D02*
X99212400Y-70485000D01*
X190144400Y-84455000D02*
X190398400Y-91821000D01*
X89306400Y-95885000D02*
X91313000Y-95554800D01*
X187350400Y-236093000D02*
X184556400Y-236093000D01*
X188620400Y-95377000D02*
X186080400Y-95885000D01*
X125374400Y-240665000D02*
X125628400Y-240919000D01*
X181000400Y-165481000D02*
X185572400Y-166751000D01*
X135788400Y-64897000D02*
X147472400Y-64897000D01*
X127711200Y-133807200D02*
X127704850Y-86944200D01*
X63398400Y-172847000D02*
X62382400Y-174117000D01*
X82194400Y-223647000D02*
X82194400Y-224663000D01*
X93167200Y-94259400D02*
X98374200Y-90068400D01*
X81940400Y-222377000D02*
X82194400Y-223647000D01*
X193192400Y-221107000D02*
X192430400Y-222377000D01*
X173202600Y-90068400D02*
X164211000Y-86893400D01*
X189128400Y-235839000D02*
X187350400Y-236093000D01*
X116408200Y-85598000D02*
X121869200Y-85242400D01*
M02*
